M48
;Layer_Color=9474304
;FILE_FORMAT=4:4
METRIC,LZ
;TYPE=PLATED
T01F00S00C0.2032
T02F00S00C0.3810
T03F00S00C0.7620
T04F00S00C1.0000
T05F00S00C1.0200
T06F00S00C1.3000
T07F00S00C1.3208
T08F00S00C1.6000
T09F00S00C5.4500
%
T01
X00296164Y00314222
X00446532Y0032639
X0046736Y0033782
X0046863Y0026924
X00421386Y00207264
T02
X00367538Y00139446
X00381508
X00330708Y00144145
X0042291Y0027813
X00452374Y00256794
T03
X0041529Y0012827
X0047879Y0020574
X0028321Y0035433
T04
X0078733Y0012954
X0086233
X0020955Y004318
X0013455
T05
X0059944Y0050165
X0062484
X0065024
T06
X0085856Y0025821
Y0030821
X0007108Y0029297
Y0024297
T07
X0054737Y00272288
X0068961
T08
X0035306Y0053975
X0041656Y0054102
T09
X0073025Y0053721
X0049657Y0054356
M30
