G04*
G04 #@! TF.GenerationSoftware,Altium Limited,Altium Designer,24.10.1 (45)*
G04*
G04 Layer_Physical_Order=1*
G04 Layer_Color=255*
%FSLAX44Y44*%
%MOMM*%
G71*
G04*
G04 #@! TF.SameCoordinates,4BA20A26-6699-4CC0-9CF9-A882EA70ABF6*
G04*
G04*
G04 #@! TF.FilePolarity,Positive*
G04*
G01*
G75*
%ADD14C,0.2540*%
%ADD17R,2.1000X2.0000*%
%ADD18R,10.8000X9.4000*%
%ADD19R,0.8000X4.6000*%
%ADD20R,1.3500X1.4500*%
G04:AMPARAMS|DCode=21|XSize=0.76mm|YSize=0.6604mm|CornerRadius=0.0825mm|HoleSize=0mm|Usage=FLASHONLY|Rotation=180.000|XOffset=0mm|YOffset=0mm|HoleType=Round|Shape=RoundedRectangle|*
%AMROUNDEDRECTD21*
21,1,0.7600,0.4953,0,0,180.0*
21,1,0.5949,0.6604,0,0,180.0*
1,1,0.1651,-0.2975,0.2477*
1,1,0.1651,0.2975,0.2477*
1,1,0.1651,0.2975,-0.2477*
1,1,0.1651,-0.2975,-0.2477*
%
%ADD21ROUNDEDRECTD21*%
%ADD22R,1.1000X1.3500*%
G04:AMPARAMS|DCode=23|XSize=0.3mm|YSize=1.35mm|CornerRadius=0.0495mm|HoleSize=0mm|Usage=FLASHONLY|Rotation=0.000|XOffset=0mm|YOffset=0mm|HoleType=Round|Shape=RoundedRectangle|*
%AMROUNDEDRECTD23*
21,1,0.3000,1.2510,0,0,0.0*
21,1,0.2010,1.3500,0,0,0.0*
1,1,0.0990,0.1005,-0.6255*
1,1,0.0990,-0.1005,-0.6255*
1,1,0.0990,-0.1005,0.6255*
1,1,0.0990,0.1005,0.6255*
%
%ADD23ROUNDEDRECTD23*%
%ADD31R,1.5500X1.5500*%
%ADD32C,1.5500*%
%ADD34R,1.8288X1.8288*%
%ADD35C,1.8288*%
%ADD40C,0.3048*%
%ADD41C,0.6350*%
%ADD42C,1.2700*%
%ADD43C,0.5080*%
%ADD44C,2.5400*%
%ADD45C,0.3810*%
%ADD46C,1.9500*%
G04:AMPARAMS|DCode=47|XSize=1.95mm|YSize=1.95mm|CornerRadius=0.4875mm|HoleSize=0mm|Usage=FLASHONLY|Rotation=270.000|XOffset=0mm|YOffset=0mm|HoleType=Round|Shape=RoundedRectangle|*
%AMROUNDEDRECTD47*
21,1,1.9500,0.9750,0,0,270.0*
21,1,0.9750,1.9500,0,0,270.0*
1,1,0.9750,-0.4875,-0.4875*
1,1,0.9750,-0.4875,0.4875*
1,1,0.9750,0.4875,0.4875*
1,1,0.9750,0.4875,-0.4875*
%
%ADD47ROUNDEDRECTD47*%
%ADD48C,10.0000*%
%ADD49C,2.1000*%
%ADD50C,1.2700*%
%ADD51C,0.6350*%
%ADD52C,0.4572*%
%ADD53C,0.4064*%
G36*
X265430Y508000D02*
X397510D01*
X427990Y477520D01*
Y381000D01*
X275590D01*
X265430Y370840D01*
X234950Y279400D01*
X101600Y156210D01*
X1270D01*
X0Y157480D01*
Y523240D01*
X250190D01*
X265430Y508000D01*
D02*
G37*
G36*
X902970Y275590D02*
X843280D01*
X834390Y266700D01*
Y191770D01*
X834053Y190764D01*
X815340Y190500D01*
Y73660D01*
X741680D01*
Y201930D01*
X720052Y228600D01*
X671830D01*
Y304155D01*
X672729Y305052D01*
X706117Y304972D01*
Y332737D01*
X721360Y347980D01*
X902970D01*
Y275590D01*
D02*
G37*
%LPC*%
G36*
X144840Y442090D02*
X124260D01*
Y421510D01*
X144840D01*
Y442090D01*
D02*
G37*
G36*
X72698Y255260D02*
X69462D01*
X66336Y254422D01*
X63534Y252805D01*
X61245Y250516D01*
X59627Y247714D01*
X58790Y244588D01*
Y241352D01*
X59627Y238226D01*
X61245Y235424D01*
X63534Y233136D01*
X66336Y231518D01*
X69462Y230680D01*
X72698D01*
X75824Y231518D01*
X78626Y233136D01*
X80914Y235424D01*
X82532Y238226D01*
X83370Y241352D01*
Y244588D01*
X82532Y247714D01*
X80914Y250516D01*
X78626Y252805D01*
X75824Y254422D01*
X72698Y255260D01*
D02*
G37*
%LPD*%
D14*
X441579Y250571D02*
X445770Y246380D01*
X450370Y248920D02*
X471170D01*
X445389Y259687D02*
X446810Y261108D01*
X441579Y250571D02*
Y261265D01*
X441810Y261497D01*
X446810Y269620D02*
X447040Y269850D01*
X445389Y253901D02*
X450370Y248920D01*
X452207Y256961D02*
X452374Y256794D01*
X445389Y253901D02*
Y259687D01*
X452207Y256961D02*
Y269683D01*
X441810Y261497D02*
Y269620D01*
X452040Y269850D02*
X452207Y269683D01*
X446810Y261108D02*
Y269620D01*
X441810D02*
X442040Y269850D01*
X446206Y246380D02*
X448746Y243840D01*
X473274D02*
X524510Y295076D01*
X448746Y243840D02*
X473274D01*
X471170Y248920D02*
X519430Y297180D01*
X423418Y271668D02*
Y277622D01*
Y271668D02*
X423926Y271160D01*
X422910Y278130D02*
X423418Y277622D01*
X445770Y246380D02*
X446206D01*
X452040Y319600D02*
X452270Y319830D01*
X524510Y447040D02*
X554990Y477520D01*
X440436Y324104D02*
Y336174D01*
X452270Y319830D02*
Y322516D01*
X447040Y314350D02*
Y325882D01*
X519430Y297180D02*
Y450850D01*
X524510Y295076D02*
Y447040D01*
X496627Y366812D02*
X497712Y367897D01*
X294837Y314611D02*
X295775D01*
X459740Y314960D02*
X480255D01*
X497712Y367897D02*
X499640Y368300D01*
X452040Y334570D02*
X452264D01*
X600710Y477520D02*
X624840Y501650D01*
X441981Y314409D02*
Y322559D01*
X452040Y314350D02*
Y319600D01*
X500570Y347500D02*
Y360974D01*
X441981Y314409D02*
X442040Y314350D01*
X457350Y317350D02*
X459740Y314960D01*
X583391Y485601D02*
X599440Y501650D01*
X554181Y485601D02*
X583391D01*
X287020Y321930D02*
X287518D01*
X480255Y314960D02*
X492140Y326845D01*
X496627Y364917D02*
X496627Y366812D01*
X287518Y321930D02*
X294837Y314611D01*
X452264Y334570D02*
X453724Y333110D01*
Y323970D02*
Y333110D01*
X492140Y339070D02*
X500570Y347500D01*
X440436Y324104D02*
X441981Y322559D01*
X452270Y322516D02*
X453724Y323970D01*
X446532Y326390D02*
X447040Y325882D01*
X519430Y450850D02*
X554181Y485601D01*
X554990Y477520D02*
X600710D01*
X492140Y326845D02*
Y339070D01*
X496627Y364917D02*
X500570Y360974D01*
X295775Y314611D02*
X296164Y314222D01*
X467360Y337820D02*
X478140D01*
D17*
X499640Y368300D02*
D03*
X470640D02*
D03*
D18*
X349758Y434146D02*
D03*
Y262396D02*
D03*
D19*
X387858Y342646D02*
D03*
X375158D02*
D03*
X362458D02*
D03*
X337058D02*
D03*
X324358D02*
D03*
X311658D02*
D03*
X387858Y170896D02*
D03*
X375158D02*
D03*
X362458D02*
D03*
X337058D02*
D03*
X324358D02*
D03*
X311658D02*
D03*
D20*
X454020Y339090D02*
D03*
X437520D02*
D03*
D21*
X287020Y335930D02*
D03*
Y321930D02*
D03*
X414020Y140320D02*
D03*
Y154320D02*
D03*
X423926Y257160D02*
D03*
Y271160D02*
D03*
D22*
X478140Y337820D02*
D03*
X492140D02*
D03*
D23*
X437040Y314350D02*
D03*
X442040D02*
D03*
X447040D02*
D03*
X452040D02*
D03*
X437040Y269850D02*
D03*
X442040D02*
D03*
X447040D02*
D03*
X452040D02*
D03*
X457040Y314350D02*
D03*
Y269850D02*
D03*
D31*
X134550Y431800D02*
D03*
X862330Y129540D02*
D03*
X599440Y501650D02*
D03*
D32*
X209550Y431800D02*
D03*
X787330Y129540D02*
D03*
X624840Y501650D02*
D03*
X650240D02*
D03*
D34*
X689610Y272288D02*
D03*
D35*
X547370D02*
D03*
D40*
X457040Y269850D02*
X468020D01*
X468630Y269240D01*
X437040Y264648D02*
Y269850D01*
X421400Y201595D02*
Y207250D01*
X432416Y264624D02*
X437016D01*
X414020Y154320D02*
Y194216D01*
X424830Y257038D02*
X432416Y264624D01*
X421386Y207264D02*
X421400Y207250D01*
X424830Y256540D02*
Y257038D01*
X414020Y194216D02*
X421400Y201595D01*
X437016Y264624D02*
X437040Y264648D01*
D41*
X387858Y311150D02*
Y342646D01*
X387033Y170071D02*
X387858Y170896D01*
X332690Y144145D02*
X336233Y147689D01*
X324358Y287796D02*
Y342646D01*
X328727Y144145D02*
X330708D01*
X381508Y139446D02*
X387033Y144971D01*
Y170071D01*
X375158Y151896D02*
Y170896D01*
X336233Y170071D02*
X337058Y170896D01*
X325183Y147689D02*
Y170071D01*
X337058Y275096D02*
Y342646D01*
X362458Y275096D02*
Y278892D01*
X375158Y291592D02*
Y342646D01*
X381508Y139446D02*
Y145546D01*
X337058Y275096D02*
X349758Y262396D01*
X375158Y151896D02*
X381508Y145546D01*
X362458Y170896D02*
X363283Y170071D01*
Y143701D02*
Y170071D01*
X325183Y147689D02*
X328727Y144145D01*
X336233Y147689D02*
Y170071D01*
X362458Y278892D02*
Y342646D01*
X324358Y287796D02*
X337058Y275096D01*
X330708Y144145D02*
X332690D01*
X363283Y143701D02*
X367538Y139446D01*
X324358Y170896D02*
X325183Y170071D01*
D42*
X497840Y370100D02*
Y466090D01*
X418148Y530542D02*
Y539432D01*
X477520Y212090D02*
Y223520D01*
Y212090D02*
X478790Y210820D01*
X362458Y278892D02*
X375158Y291592D01*
X437182Y338752D02*
X437520Y339090D01*
X391160Y303046D02*
Y311150D01*
X418762Y338752D01*
X418148Y530542D02*
X482600Y466090D01*
X497840D01*
X349758Y266192D02*
X362458Y278892D01*
X497840Y370100D02*
X499640Y368300D01*
X375158Y291592D02*
X379706D01*
X497840Y466090D02*
Y542290D01*
X416560Y541020D02*
X418148Y539432D01*
X476250Y224790D02*
X477520Y223520D01*
X418762Y338752D02*
X437182D01*
X349758Y262396D02*
Y266192D01*
X379706Y291592D02*
X391160Y303046D01*
D43*
X415052Y139786D02*
X415290Y139548D01*
X311658Y337390D02*
Y342646D01*
X310833Y138866D02*
Y170071D01*
X283210Y352268D02*
Y354330D01*
X414554Y139786D02*
X415052D01*
X287020Y335930D02*
X310198D01*
X405959Y131191D02*
X414554Y139786D01*
X310833Y138866D02*
X318508Y131191D01*
X283210Y352268D02*
X287020Y348458D01*
X415290Y128270D02*
Y139548D01*
X310198Y335930D02*
X311658Y337390D01*
X318508Y131191D02*
X405959D01*
X310833Y170071D02*
X311658Y170896D01*
X287020Y335930D02*
Y348458D01*
D44*
X349758Y262396D02*
X384058Y228096D01*
X402631D01*
X476250Y224790D02*
X499872D01*
X402631Y228096D02*
X405937Y224790D01*
X476250D01*
X499872D02*
X547370Y272288D01*
D45*
X470640Y368300D02*
X472132Y368470D01*
X469900Y361395D02*
Y369570D01*
X472132Y368470D02*
X473491D01*
X450770Y335840D02*
X454020Y339090D01*
X455290Y337820D02*
X478455Y360985D01*
D46*
X71080Y242970D02*
D03*
X858560Y308210D02*
D03*
D47*
X71080Y292970D02*
D03*
X858560Y258210D02*
D03*
D48*
X496570Y543560D02*
D03*
X730250Y537210D02*
D03*
D49*
X416560Y541020D02*
D03*
X353060Y539750D02*
D03*
D50*
X415290Y128270D02*
D03*
X478790Y205740D02*
D03*
X283210Y354330D02*
D03*
D51*
X452374Y256794D02*
D03*
X422910Y278130D02*
D03*
X330708Y144145D02*
D03*
X367538Y139446D02*
D03*
X381508D02*
D03*
D52*
X468630Y269240D02*
D03*
X421386Y207264D02*
D03*
X296164Y314222D02*
D03*
X467360Y337820D02*
D03*
D53*
X446532Y326390D02*
D03*
M02*
