G04*
G04 #@! TF.GenerationSoftware,Altium Limited,Altium Designer,24.10.1 (45)*
G04*
G04 Layer_Color=65535*
%FSLAX44Y44*%
%MOMM*%
G71*
G04*
G04 #@! TF.SameCoordinates,4BA20A26-6699-4CC0-9CF9-A882EA70ABF6*
G04*
G04*
G04 #@! TF.FilePolarity,Positive*
G04*
G01*
G75*
%ADD10C,0.2000*%
%ADD11C,0.1500*%
%ADD12C,0.2500*%
%ADD13C,0.1524*%
%ADD14C,0.2540*%
%ADD15C,0.2032*%
%ADD16C,0.1270*%
G36*
X666332Y527113D02*
X666438Y527106D01*
X666564Y527099D01*
X666705Y527078D01*
X666867Y527057D01*
X667050Y527029D01*
X667240Y526986D01*
X667437Y526937D01*
X667641Y526881D01*
X667845Y526803D01*
X668049Y526719D01*
X668260Y526620D01*
X668457Y526508D01*
X668647Y526374D01*
X668661Y526367D01*
X668689Y526339D01*
X668745Y526297D01*
X668809Y526233D01*
X668893Y526163D01*
X668985Y526065D01*
X669083Y525959D01*
X669196Y525832D01*
X669308Y525692D01*
X669428Y525537D01*
X669540Y525361D01*
X669653Y525178D01*
X669766Y524974D01*
X669864Y524756D01*
X669963Y524524D01*
X670040Y524277D01*
X668774Y523982D01*
X668767Y523996D01*
X668760Y524031D01*
X668738Y524081D01*
X668710Y524158D01*
X668675Y524242D01*
X668633Y524341D01*
X668577Y524453D01*
X668520Y524573D01*
X668457Y524700D01*
X668380Y524826D01*
X668302Y524953D01*
X668211Y525087D01*
X668112Y525206D01*
X668014Y525326D01*
X667901Y525431D01*
X667782Y525530D01*
X667775Y525537D01*
X667754Y525551D01*
X667718Y525572D01*
X667669Y525607D01*
X667606Y525643D01*
X667528Y525685D01*
X667437Y525727D01*
X667338Y525776D01*
X667226Y525818D01*
X667106Y525861D01*
X666973Y525903D01*
X666832Y525938D01*
X666677Y525973D01*
X666515Y525994D01*
X666346Y526008D01*
X666163Y526015D01*
X666058D01*
X665980Y526008D01*
X665882Y526001D01*
X665769Y525987D01*
X665643Y525973D01*
X665509Y525945D01*
X665361Y525917D01*
X665213Y525882D01*
X665059Y525840D01*
X664897Y525790D01*
X664742Y525727D01*
X664587Y525649D01*
X664433Y525572D01*
X664285Y525474D01*
X664278Y525467D01*
X664250Y525452D01*
X664214Y525417D01*
X664165Y525375D01*
X664102Y525319D01*
X664032Y525256D01*
X663954Y525178D01*
X663870Y525094D01*
X663785Y524995D01*
X663694Y524890D01*
X663609Y524770D01*
X663525Y524636D01*
X663440Y524503D01*
X663363Y524355D01*
X663293Y524200D01*
X663229Y524031D01*
Y524024D01*
X663215Y523989D01*
X663201Y523940D01*
X663180Y523876D01*
X663159Y523792D01*
X663131Y523694D01*
X663110Y523581D01*
X663082Y523454D01*
X663054Y523321D01*
X663025Y523173D01*
X662997Y523018D01*
X662976Y522856D01*
X662941Y522519D01*
X662934Y522343D01*
X662927Y522160D01*
Y522146D01*
Y522104D01*
Y522040D01*
X662934Y521949D01*
X662941Y521843D01*
X662948Y521716D01*
X662955Y521576D01*
X662969Y521428D01*
X662990Y521259D01*
X663011Y521083D01*
X663082Y520724D01*
X663117Y520535D01*
X663166Y520351D01*
X663222Y520169D01*
X663286Y519993D01*
X663293Y519986D01*
X663300Y519950D01*
X663321Y519908D01*
X663356Y519845D01*
X663391Y519768D01*
X663440Y519676D01*
X663497Y519578D01*
X663560Y519472D01*
X663637Y519366D01*
X663722Y519254D01*
X663813Y519134D01*
X663912Y519022D01*
X664025Y518909D01*
X664144Y518804D01*
X664271Y518705D01*
X664411Y518614D01*
X664418Y518607D01*
X664447Y518593D01*
X664489Y518572D01*
X664545Y518543D01*
X664615Y518508D01*
X664700Y518466D01*
X664798Y518431D01*
X664904Y518388D01*
X665024Y518339D01*
X665150Y518304D01*
X665291Y518262D01*
X665432Y518227D01*
X665586Y518199D01*
X665741Y518177D01*
X665903Y518163D01*
X666065Y518156D01*
X666114D01*
X666170Y518163D01*
X666248D01*
X666339Y518177D01*
X666445Y518191D01*
X666571Y518206D01*
X666698Y518234D01*
X666839Y518269D01*
X666987Y518311D01*
X667141Y518360D01*
X667296Y518417D01*
X667451Y518487D01*
X667606Y518572D01*
X667754Y518670D01*
X667901Y518775D01*
X667908Y518783D01*
X667936Y518804D01*
X667972Y518839D01*
X668021Y518895D01*
X668084Y518958D01*
X668155Y519036D01*
X668232Y519134D01*
X668309Y519240D01*
X668394Y519366D01*
X668478Y519500D01*
X668570Y519655D01*
X668647Y519824D01*
X668731Y520000D01*
X668802Y520197D01*
X668865Y520401D01*
X668921Y520626D01*
X670209Y520302D01*
Y520295D01*
X670202Y520281D01*
X670195Y520260D01*
X670188Y520232D01*
X670181Y520197D01*
X670167Y520148D01*
X670132Y520042D01*
X670082Y519908D01*
X670026Y519761D01*
X669956Y519592D01*
X669871Y519409D01*
X669780Y519212D01*
X669674Y519015D01*
X669555Y518818D01*
X669421Y518614D01*
X669273Y518417D01*
X669111Y518227D01*
X668935Y518051D01*
X668745Y517882D01*
X668731Y517875D01*
X668696Y517847D01*
X668640Y517805D01*
X668556Y517755D01*
X668457Y517692D01*
X668330Y517622D01*
X668190Y517544D01*
X668028Y517467D01*
X667852Y517389D01*
X667655Y517312D01*
X667444Y517242D01*
X667219Y517178D01*
X666973Y517129D01*
X666719Y517087D01*
X666452Y517059D01*
X666170Y517052D01*
X666065D01*
X666016Y517059D01*
X665910D01*
X665776Y517073D01*
X665622Y517087D01*
X665446Y517108D01*
X665263Y517129D01*
X665059Y517164D01*
X664855Y517206D01*
X664637Y517263D01*
X664426Y517319D01*
X664214Y517397D01*
X664003Y517481D01*
X663799Y517579D01*
X663609Y517692D01*
X663595Y517699D01*
X663567Y517720D01*
X663518Y517762D01*
X663447Y517812D01*
X663363Y517875D01*
X663272Y517959D01*
X663166Y518051D01*
X663054Y518163D01*
X662934Y518290D01*
X662814Y518424D01*
X662688Y518578D01*
X662561Y518740D01*
X662441Y518923D01*
X662322Y519113D01*
X662209Y519324D01*
X662111Y519542D01*
Y519549D01*
X662104Y519557D01*
X662090Y519599D01*
X662061Y519662D01*
X662033Y519753D01*
X661991Y519866D01*
X661949Y520000D01*
X661900Y520154D01*
X661858Y520323D01*
X661808Y520513D01*
X661759Y520717D01*
X661717Y520928D01*
X661674Y521161D01*
X661646Y521393D01*
X661618Y521639D01*
X661604Y521892D01*
X661597Y522153D01*
Y522160D01*
Y522174D01*
Y522195D01*
Y522223D01*
Y522258D01*
X661604Y522300D01*
Y522406D01*
X661618Y522540D01*
X661625Y522695D01*
X661646Y522870D01*
X661667Y523060D01*
X661703Y523257D01*
X661738Y523468D01*
X661787Y523694D01*
X661843Y523919D01*
X661907Y524144D01*
X661984Y524369D01*
X662076Y524587D01*
X662174Y524805D01*
X662181Y524819D01*
X662202Y524854D01*
X662237Y524911D01*
X662280Y524995D01*
X662343Y525087D01*
X662413Y525192D01*
X662505Y525319D01*
X662603Y525446D01*
X662709Y525579D01*
X662835Y525727D01*
X662969Y525868D01*
X663117Y526008D01*
X663279Y526149D01*
X663447Y526283D01*
X663631Y526409D01*
X663828Y526529D01*
X663841Y526536D01*
X663877Y526557D01*
X663933Y526585D01*
X664017Y526620D01*
X664116Y526670D01*
X664236Y526719D01*
X664376Y526768D01*
X664524Y526824D01*
X664693Y526881D01*
X664876Y526930D01*
X665073Y526986D01*
X665277Y527029D01*
X665495Y527064D01*
X665720Y527092D01*
X665952Y527113D01*
X666191Y527120D01*
X666290D01*
X666332Y527113D01*
D02*
G37*
G36*
X659803Y517214D02*
X658473D01*
X653372Y524854D01*
Y517214D01*
X652134D01*
Y526951D01*
X653457D01*
X658565Y519303D01*
Y526951D01*
X659803D01*
Y517214D01*
D02*
G37*
G36*
X638893D02*
X637563D01*
X632462Y524854D01*
Y517214D01*
X631224D01*
Y526951D01*
X632546D01*
X637654Y519303D01*
Y526951D01*
X638893D01*
Y517214D01*
D02*
G37*
G36*
X609012D02*
X607766D01*
Y525361D01*
X604931Y517214D01*
X603763D01*
X600956Y525502D01*
Y517214D01*
X599710D01*
Y526951D01*
X601645D01*
X603953Y520056D01*
X603960Y520042D01*
X603967Y520014D01*
X603981Y519965D01*
X604002Y519901D01*
X604030Y519817D01*
X604058Y519725D01*
X604094Y519627D01*
X604129Y519514D01*
X604206Y519282D01*
X604283Y519043D01*
X604319Y518923D01*
X604354Y518811D01*
X604389Y518712D01*
X604417Y518614D01*
Y518621D01*
X604424Y518642D01*
X604438Y518670D01*
X604452Y518712D01*
X604466Y518769D01*
X604487Y518839D01*
X604516Y518916D01*
X604544Y519008D01*
X604579Y519113D01*
X604621Y519226D01*
X604663Y519352D01*
X604706Y519493D01*
X604762Y519648D01*
X604811Y519810D01*
X604874Y519986D01*
X604938Y520176D01*
X607274Y526951D01*
X609012D01*
Y517214D01*
D02*
G37*
G36*
X595883D02*
X594630D01*
X592597Y524629D01*
Y524643D01*
X592583Y524672D01*
X592569Y524714D01*
X592555Y524777D01*
X592534Y524854D01*
X592513Y524932D01*
X592485Y525023D01*
X592456Y525122D01*
X592400Y525319D01*
X592379Y525410D01*
X592351Y525502D01*
X592330Y525586D01*
X592309Y525657D01*
X592295Y525720D01*
X592280Y525769D01*
Y525762D01*
X592273Y525741D01*
X592266Y525706D01*
X592252Y525657D01*
X592238Y525600D01*
X592224Y525530D01*
X592203Y525460D01*
X592182Y525375D01*
X592140Y525199D01*
X592090Y525009D01*
X592041Y524812D01*
X591992Y524629D01*
X589944Y517214D01*
X588608D01*
X586040Y526951D01*
X587355D01*
X588833Y520563D01*
Y520549D01*
X588847Y520520D01*
X588854Y520464D01*
X588875Y520394D01*
X588896Y520302D01*
X588917Y520197D01*
X588946Y520070D01*
X588974Y519936D01*
X589009Y519796D01*
X589037Y519641D01*
X589072Y519472D01*
X589107Y519303D01*
X589178Y518944D01*
X589248Y518572D01*
Y518578D01*
X589255Y518593D01*
Y518614D01*
X589262Y518642D01*
X589276Y518677D01*
X589283Y518719D01*
X589304Y518818D01*
X589339Y518944D01*
X589368Y519078D01*
X589403Y519226D01*
X589445Y519381D01*
X589522Y519697D01*
X589558Y519852D01*
X589593Y519993D01*
X589628Y520119D01*
X589649Y520225D01*
X589677Y520316D01*
X589684Y520345D01*
X589691Y520373D01*
X591535Y526951D01*
X593089D01*
X594483Y522019D01*
Y522012D01*
X594490Y521998D01*
X594497Y521970D01*
X594504Y521935D01*
X594518Y521892D01*
X594532Y521836D01*
X594546Y521780D01*
X594567Y521709D01*
X594588Y521632D01*
X594609Y521548D01*
X594659Y521351D01*
X594715Y521139D01*
X594771Y520900D01*
X594834Y520640D01*
X594898Y520373D01*
X594961Y520084D01*
X595024Y519789D01*
X595144Y519184D01*
X595243Y518572D01*
Y518586D01*
X595249Y518614D01*
X595264Y518663D01*
X595278Y518733D01*
X595299Y518825D01*
X595320Y518923D01*
X595348Y519050D01*
X595376Y519184D01*
X595411Y519331D01*
X595447Y519493D01*
X595482Y519669D01*
X595531Y519852D01*
X595573Y520049D01*
X595622Y520253D01*
X595672Y520471D01*
X595728Y520689D01*
X597255Y526951D01*
X598556D01*
X595883Y517214D01*
D02*
G37*
G36*
X629232Y525804D02*
X623484D01*
Y522821D01*
X628867D01*
Y521674D01*
X623484D01*
Y518360D01*
X629458D01*
Y517214D01*
X622197D01*
Y526951D01*
X629232D01*
Y525804D01*
D02*
G37*
G36*
X581853Y526944D02*
X581952D01*
X582064Y526937D01*
X582304Y526930D01*
X582550Y526909D01*
X582789Y526888D01*
X582902Y526867D01*
X583000Y526853D01*
X583007D01*
X583035Y526846D01*
X583071Y526838D01*
X583120Y526832D01*
X583183Y526817D01*
X583254Y526796D01*
X583331Y526775D01*
X583422Y526754D01*
X583612Y526691D01*
X583809Y526606D01*
X584013Y526515D01*
X584203Y526395D01*
X584210Y526388D01*
X584224Y526381D01*
X584253Y526360D01*
X584281Y526332D01*
X584323Y526304D01*
X584372Y526262D01*
X584428Y526212D01*
X584485Y526156D01*
X584541Y526093D01*
X584604Y526022D01*
X584738Y525861D01*
X584865Y525671D01*
X584984Y525460D01*
X584991Y525452D01*
X584998Y525431D01*
X585012Y525396D01*
X585034Y525354D01*
X585055Y525298D01*
X585076Y525227D01*
X585104Y525150D01*
X585132Y525065D01*
X585160Y524974D01*
X585188Y524869D01*
X585209Y524763D01*
X585231Y524643D01*
X585266Y524397D01*
X585280Y524130D01*
Y524116D01*
Y524073D01*
X585273Y524010D01*
X585266Y523926D01*
X585259Y523813D01*
X585238Y523694D01*
X585216Y523553D01*
X585181Y523405D01*
X585139Y523243D01*
X585083Y523074D01*
X585019Y522898D01*
X584942Y522723D01*
X584851Y522547D01*
X584745Y522371D01*
X584626Y522195D01*
X584485Y522033D01*
X584478Y522026D01*
X584450Y521998D01*
X584400Y521956D01*
X584330Y521899D01*
X584239Y521836D01*
X584126Y521759D01*
X583992Y521681D01*
X583830Y521604D01*
X583647Y521526D01*
X583443Y521449D01*
X583204Y521372D01*
X582951Y521308D01*
X582663Y521252D01*
X582508Y521231D01*
X582346Y521210D01*
X582177Y521196D01*
X582001Y521182D01*
X581818Y521175D01*
X579138D01*
Y517214D01*
X577850D01*
Y526951D01*
X581755D01*
X581853Y526944D01*
D02*
G37*
G36*
X646076Y514350D02*
X645035D01*
Y527113D01*
X646076D01*
Y514350D01*
D02*
G37*
G36*
X616097D02*
X615055D01*
Y527113D01*
X616097D01*
Y514350D01*
D02*
G37*
%LPC*%
G36*
X581783Y525804D02*
X579138D01*
Y522322D01*
X581769D01*
X581853Y522329D01*
X581952Y522336D01*
X582071Y522350D01*
X582198Y522364D01*
X582339Y522378D01*
X582627Y522434D01*
X582775Y522469D01*
X582923Y522519D01*
X583064Y522568D01*
X583197Y522631D01*
X583317Y522701D01*
X583422Y522786D01*
X583429Y522793D01*
X583443Y522807D01*
X583472Y522835D01*
X583507Y522870D01*
X583542Y522920D01*
X583591Y522976D01*
X583641Y523046D01*
X583690Y523124D01*
X583739Y523215D01*
X583781Y523307D01*
X583830Y523419D01*
X583866Y523532D01*
X583901Y523658D01*
X583929Y523799D01*
X583943Y523940D01*
X583950Y524095D01*
Y524102D01*
Y524123D01*
Y524151D01*
X583943Y524200D01*
Y524249D01*
X583936Y524313D01*
X583922Y524383D01*
X583915Y524453D01*
X583873Y524615D01*
X583816Y524791D01*
X583746Y524967D01*
X583697Y525051D01*
X583641Y525136D01*
Y525143D01*
X583626Y525157D01*
X583605Y525178D01*
X583584Y525206D01*
X583514Y525284D01*
X583422Y525375D01*
X583303Y525467D01*
X583169Y525565D01*
X583007Y525649D01*
X582824Y525713D01*
X582817D01*
X582810Y525720D01*
X582789D01*
X582761Y525727D01*
X582726Y525734D01*
X582677Y525741D01*
X582620Y525748D01*
X582550Y525762D01*
X582472Y525769D01*
X582388Y525776D01*
X582290Y525783D01*
X582177Y525790D01*
X582057Y525797D01*
X581924D01*
X581783Y525804D01*
D02*
G37*
%LPD*%
D10*
X550570Y543560D02*
G03*
X550570Y543560I-54000J0D01*
G01*
X432410Y541020D02*
G03*
X432410Y541020I-15850J0D01*
G01*
X368910Y539750D02*
G03*
X368910Y539750I-15850J0D01*
G01*
X784250Y537210D02*
G03*
X784250Y537210I-54000J0D01*
G01*
X31080Y217970D02*
Y317970D01*
X106080Y217970D02*
Y317970D01*
X31080Y217970D02*
X106080D01*
X31080Y317970D02*
X106080D01*
X105550Y384800D02*
Y478800D01*
X891330Y82540D02*
Y176540D01*
X462140Y382050D02*
Y382800D01*
Y353800D02*
Y354550D01*
Y353800D02*
X508140D01*
Y382050D02*
Y382800D01*
Y353800D02*
Y354550D01*
X462140Y382800D02*
X508140D01*
X298758Y371896D02*
Y383396D01*
Y371896D02*
X400758D01*
Y383396D01*
X298758Y200146D02*
Y211646D01*
Y200146D02*
X400758D01*
Y211646D01*
X898560Y233210D02*
Y333210D01*
X823560Y233210D02*
Y333210D01*
X898560D01*
X823560Y233210D02*
X898560D01*
X284020Y328930D02*
X290020D01*
X411020Y147320D02*
X417020D01*
X420926Y264160D02*
X426926D01*
X431540Y303600D02*
X462540D01*
X431540Y280600D02*
X462540D01*
Y303600D01*
X431540Y280600D02*
Y303600D01*
X586740Y514100D02*
X662940D01*
X586740Y489200D02*
X662940D01*
X586740D02*
Y514100D01*
X662940Y489200D02*
Y514100D01*
D11*
X254550Y431800D02*
G03*
X254550Y431800I-82500J0D01*
G01*
X907330Y129540D02*
G03*
X907330Y129540I-82500J0D01*
G01*
D12*
X455140Y368300D02*
G03*
X455140Y368300I-1250J0D01*
G01*
X312908Y313146D02*
G03*
X312908Y313146I-1250J0D01*
G01*
Y141396D02*
G03*
X312908Y141396I-1250J0D01*
G01*
X465790Y314350D02*
G03*
X465790Y314350I-1250J0D01*
G01*
X581490Y501650D02*
G03*
X581490Y501650I-1250J0D01*
G01*
D13*
X534670Y108458D02*
X702310D01*
X534670Y436118D02*
X702310D01*
X534670Y108458D02*
Y436118D01*
X702310Y108458D02*
Y436118D01*
D14*
X31496Y343149D02*
Y332992D01*
X36574Y327914D01*
X41653Y332992D01*
Y343149D01*
X46731D02*
X51809D01*
X49270D01*
Y327914D01*
X46731D01*
X51809D01*
X59427D02*
Y343149D01*
X69584Y327914D01*
Y343149D01*
X430537Y610868D02*
Y600711D01*
X435615Y595633D01*
X440693Y600711D01*
Y610868D01*
X455928Y608328D02*
X453389Y610868D01*
X448311D01*
X445772Y608328D01*
Y598172D01*
X448311Y595633D01*
X453389D01*
X455928Y598172D01*
X471163Y608328D02*
X468624Y610868D01*
X463546D01*
X461007Y608328D01*
Y598172D01*
X463546Y595633D01*
X468624D01*
X471163Y598172D01*
X102870Y516888D02*
X100331Y519428D01*
X95253D01*
X92713Y516888D01*
Y506732D01*
X95253Y504193D01*
X100331D01*
X102870Y506732D01*
X107948Y504193D02*
X113027D01*
X110488D01*
Y519428D01*
X107948Y516888D01*
X757521Y57148D02*
X754982Y59688D01*
X749903D01*
X747364Y57148D01*
Y46992D01*
X749903Y44453D01*
X754982D01*
X757521Y46992D01*
X770217Y44453D02*
Y59688D01*
X762599Y52070D01*
X772756D01*
X453898Y407665D02*
Y392430D01*
X461516D01*
X464055Y394969D01*
Y405126D01*
X461516Y407665D01*
X453898D01*
X469133Y392430D02*
X474211D01*
X471672D01*
Y407665D01*
X469133Y405126D01*
X420878Y468378D02*
Y478534D01*
X418339Y481074D01*
X413260D01*
X410721Y478534D01*
Y468378D01*
X413260Y465839D01*
X418339D01*
X415800Y470917D02*
X420878Y465839D01*
X418339D02*
X420878Y468378D01*
X425956Y465839D02*
X431035D01*
X428496D01*
Y481074D01*
X425956Y478534D01*
X861069Y355598D02*
Y345441D01*
X866147Y340363D01*
X871226Y345441D01*
Y355598D01*
X883922D02*
X878843D01*
X876304Y353058D01*
Y342902D01*
X878843Y340363D01*
X883922D01*
X886461Y342902D01*
Y353058D01*
X883922Y355598D01*
X891539D02*
Y342902D01*
X894078Y340363D01*
X899157D01*
X901696Y342902D01*
Y355598D01*
X906774D02*
X916931D01*
X911853D01*
Y340363D01*
X438151Y364488D02*
X435612Y367028D01*
X430533D01*
X427994Y364488D01*
Y354332D01*
X430533Y351792D01*
X435612D01*
X438151Y354332D01*
X453386Y351792D02*
X443229D01*
X453386Y361949D01*
Y364488D01*
X450847Y367028D01*
X445768D01*
X443229Y364488D01*
X279398Y320043D02*
X264163D01*
Y327661D01*
X266702Y330200D01*
X271780D01*
X274319Y327661D01*
Y320043D01*
Y325122D02*
X279398Y330200D01*
Y335278D02*
Y340357D01*
Y337818D01*
X264163D01*
X266702Y335278D01*
X422914Y138433D02*
Y153668D01*
X430532D01*
X433071Y151128D01*
Y146050D01*
X430532Y143511D01*
X422914D01*
X427993D02*
X433071Y138433D01*
X438149Y151128D02*
X440688Y153668D01*
X445767D01*
X448306Y151128D01*
Y148589D01*
X445767Y146050D01*
X443228D01*
X445767D01*
X448306Y143511D01*
Y140972D01*
X445767Y138433D01*
X440688D01*
X438149Y140972D01*
X511811Y340358D02*
X509272Y342898D01*
X504193D01*
X501654Y340358D01*
Y330202D01*
X504193Y327663D01*
X509272D01*
X511811Y330202D01*
X516889Y340358D02*
X519428Y342898D01*
X524507D01*
X527046Y340358D01*
Y337819D01*
X524507Y335280D01*
X521968D01*
X524507D01*
X527046Y332741D01*
Y330202D01*
X524507Y327663D01*
X519428D01*
X516889Y330202D01*
X406403Y322578D02*
Y309882D01*
X408942Y307342D01*
X414021D01*
X416560Y309882D01*
Y322578D01*
X421638Y307342D02*
X426717D01*
X424178D01*
Y322578D01*
X421638Y320038D01*
X398787Y576578D02*
Y566421D01*
X403865Y561343D01*
X408943Y566421D01*
Y576578D01*
X424178Y574038D02*
X421639Y576578D01*
X416561D01*
X414022Y574038D01*
Y563882D01*
X416561Y561343D01*
X421639D01*
X424178Y563882D01*
X439413Y574038D02*
X436874Y576578D01*
X431796D01*
X429257Y574038D01*
Y563882D01*
X431796Y561343D01*
X436874D01*
X439413Y563882D01*
X535178Y461005D02*
Y445770D01*
X545335D01*
X550413D02*
X555491D01*
X552952D01*
Y461005D01*
X550413Y458466D01*
X425454Y129538D02*
X435611D01*
X430532D01*
Y114303D01*
X448307D02*
Y129538D01*
X440689Y121920D01*
X450846D01*
X473964Y235961D02*
X484121D01*
X479042D01*
Y220726D01*
X499356D02*
X489199D01*
X499356Y230883D01*
Y233422D01*
X496817Y235961D01*
X491738D01*
X489199Y233422D01*
X271783Y377188D02*
X281940D01*
X276862D01*
Y361953D01*
X287018D02*
X292097D01*
X289558D01*
Y377188D01*
X287018Y374648D01*
X342903Y574038D02*
X340364Y576578D01*
X335286D01*
X332747Y574038D01*
Y563882D01*
X335286Y561343D01*
X340364D01*
X342903Y563882D01*
Y568960D01*
X337825D01*
X347982Y561343D02*
Y576578D01*
X358138Y561343D01*
Y576578D01*
X363217D02*
Y561343D01*
X370834D01*
X373373Y563882D01*
Y574038D01*
X370834Y576578D01*
X363217D01*
X676916Y607058D02*
X674377Y609598D01*
X669298D01*
X666759Y607058D01*
Y596902D01*
X669298Y594362D01*
X674377D01*
X676916Y596902D01*
Y601980D01*
X671837D01*
X681994Y594362D02*
Y609598D01*
X692151Y594362D01*
Y609598D01*
X697229D02*
Y594362D01*
X704847D01*
X707386Y596902D01*
Y607058D01*
X704847Y609598D01*
X697229D01*
X722621Y594362D02*
X712464D01*
X722621Y604519D01*
Y607058D01*
X720082Y609598D01*
X715003D01*
X712464Y607058D01*
D15*
X414867Y288715D02*
Y295486D01*
X413174Y297178D01*
X409789D01*
X408096Y295486D01*
Y288715D01*
X409789Y287022D01*
X413174D01*
X411482Y290407D02*
X414867Y287022D01*
X413174D02*
X414867Y288715D01*
X425024Y287022D02*
X418253D01*
X425024Y293793D01*
Y295486D01*
X423331Y297178D01*
X419946D01*
X418253Y295486D01*
D16*
X408941Y276096D02*
X416559D01*
Y272287D01*
X415289Y271018D01*
X412750D01*
X411480Y272287D01*
Y276096D01*
Y273557D02*
X408941Y271018D01*
Y263400D02*
Y268478D01*
X414020Y263400D01*
X415289D01*
X416559Y264670D01*
Y267209D01*
X415289Y268478D01*
M02*
