G04*
G04 #@! TF.GenerationSoftware,Altium Limited,Altium Designer,24.10.1 (45)*
G04*
G04 Layer_Color=16711935*
%FSLAX44Y44*%
%MOMM*%
G71*
G04*
G04 #@! TF.SameCoordinates,4BA20A26-6699-4CC0-9CF9-A882EA70ABF6*
G04*
G04*
G04 #@! TF.FilePolarity,Negative*
G04*
G01*
G75*
%ADD28C,2.1532*%
G04:AMPARAMS|DCode=29|XSize=2.1532mm|YSize=2.1532mm|CornerRadius=0.5891mm|HoleSize=0mm|Usage=FLASHONLY|Rotation=270.000|XOffset=0mm|YOffset=0mm|HoleType=Round|Shape=RoundedRectangle|*
%AMROUNDEDRECTD29*
21,1,2.1532,0.9750,0,0,270.0*
21,1,0.9750,2.1532,0,0,270.0*
1,1,1.1782,-0.4875,-0.4875*
1,1,1.1782,-0.4875,0.4875*
1,1,1.1782,0.4875,0.4875*
1,1,1.1782,0.4875,-0.4875*
%
%ADD29ROUNDEDRECTD29*%
%ADD30C,10.2032*%
%ADD31R,1.5500X1.5500*%
%ADD32C,1.5500*%
%ADD33C,2.3032*%
%ADD34R,1.8288X1.8288*%
%ADD35C,1.8288*%
%ADD36C,1.4732*%
%ADD37R,1.7532X1.7532*%
%ADD38C,1.7532*%
%ADD39C,0.8382*%
%ADD54C,0.6604*%
%ADD55C,0.6096*%
D28*
X71080Y242970D02*
D03*
X858560Y308210D02*
D03*
D29*
X71080Y292970D02*
D03*
X858560Y258210D02*
D03*
D30*
X496570Y543560D02*
D03*
X730250Y537210D02*
D03*
D31*
X134550Y431800D02*
D03*
X862330Y129540D02*
D03*
D32*
X209550Y431800D02*
D03*
X787330Y129540D02*
D03*
D33*
X416560Y541020D02*
D03*
X353060Y539750D02*
D03*
D34*
X689610Y272288D02*
D03*
D35*
X547370D02*
D03*
D36*
X415290Y128270D02*
D03*
X478790Y205740D02*
D03*
X283210Y354330D02*
D03*
D37*
X599440Y501650D02*
D03*
D38*
X624840D02*
D03*
X650240D02*
D03*
D39*
X452374Y256794D02*
D03*
X422910Y278130D02*
D03*
X330708Y144145D02*
D03*
X367538Y139446D02*
D03*
X381508D02*
D03*
D54*
X468630Y269240D02*
D03*
X421386Y207264D02*
D03*
X296164Y314222D02*
D03*
X467360Y337820D02*
D03*
D55*
X446532Y326390D02*
D03*
M02*
