G04*
G04 #@! TF.GenerationSoftware,Altium Limited,Altium Designer,24.10.1 (45)*
G04*
G04 Layer_Physical_Order=2*
G04 Layer_Color=16711680*
%FSLAX44Y44*%
%MOMM*%
G71*
G04*
G04 #@! TF.SameCoordinates,4BA20A26-6699-4CC0-9CF9-A882EA70ABF6*
G04*
G04*
G04 #@! TF.FilePolarity,Positive*
G04*
G01*
G75*
%ADD14C,0.2540*%
%ADD31R,1.5500X1.5500*%
%ADD32C,1.5500*%
%ADD34R,1.8288X1.8288*%
%ADD35C,1.8288*%
%ADD40C,0.3048*%
%ADD46C,1.9500*%
G04:AMPARAMS|DCode=47|XSize=1.95mm|YSize=1.95mm|CornerRadius=0.4875mm|HoleSize=0mm|Usage=FLASHONLY|Rotation=270.000|XOffset=0mm|YOffset=0mm|HoleType=Round|Shape=RoundedRectangle|*
%AMROUNDEDRECTD47*
21,1,1.9500,0.9750,0,0,270.0*
21,1,0.9750,1.9500,0,0,270.0*
1,1,0.9750,-0.4875,-0.4875*
1,1,0.9750,-0.4875,0.4875*
1,1,0.9750,0.4875,0.4875*
1,1,0.9750,0.4875,-0.4875*
%
%ADD47ROUNDEDRECTD47*%
%ADD48C,10.0000*%
%ADD49C,2.1000*%
%ADD50C,1.2700*%
%ADD51C,0.6350*%
%ADD52C,0.4572*%
%ADD53C,0.4064*%
G36*
X932180Y-0D02*
X0D01*
Y614680D01*
X932180D01*
Y-0D01*
D02*
G37*
%LPC*%
G36*
X418277Y554060D02*
X414843D01*
X411527Y553171D01*
X408553Y551455D01*
X406125Y549027D01*
X404409Y546053D01*
X403520Y542737D01*
Y539303D01*
X404409Y535987D01*
X406125Y533013D01*
X408553Y530585D01*
X411527Y528869D01*
X414843Y527980D01*
X418277D01*
X421593Y528869D01*
X424567Y530585D01*
X426995Y533013D01*
X428711Y535987D01*
X429600Y539303D01*
Y542737D01*
X428711Y546053D01*
X426995Y549027D01*
X424567Y551455D01*
X421593Y553171D01*
X418277Y554060D01*
D02*
G37*
G36*
X651595Y511940D02*
X648885D01*
X646268Y511239D01*
X643922Y509884D01*
X642006Y507968D01*
X640651Y505622D01*
X639950Y503005D01*
Y500295D01*
X640651Y497678D01*
X642006Y495332D01*
X643922Y493416D01*
X646268Y492061D01*
X648885Y491360D01*
X651595D01*
X654212Y492061D01*
X656558Y493416D01*
X658474Y495332D01*
X659829Y497678D01*
X660530Y500295D01*
Y503005D01*
X659829Y505622D01*
X658474Y507968D01*
X656558Y509884D01*
X654212Y511239D01*
X651595Y511940D01*
D02*
G37*
G36*
X626195D02*
X623485D01*
X620868Y511239D01*
X618522Y509884D01*
X616606Y507968D01*
X615251Y505622D01*
X614550Y503005D01*
Y500295D01*
X615251Y497678D01*
X616606Y495332D01*
X618522Y493416D01*
X620868Y492061D01*
X623485Y491360D01*
X626195D01*
X628812Y492061D01*
X631158Y493416D01*
X633074Y495332D01*
X634429Y497678D01*
X635130Y500295D01*
Y503005D01*
X634429Y505622D01*
X633074Y507968D01*
X631158Y509884D01*
X628812Y511239D01*
X626195Y511940D01*
D02*
G37*
G36*
X609730D02*
X589150D01*
Y491360D01*
X609730D01*
Y511940D01*
D02*
G37*
G36*
X500014Y596100D02*
X493126D01*
X486298Y595201D01*
X479645Y593419D01*
X473282Y590783D01*
X467318Y587339D01*
X461854Y583146D01*
X456984Y578276D01*
X452791Y572812D01*
X449347Y566848D01*
X446712Y560485D01*
X444929Y553832D01*
X444030Y547004D01*
Y540116D01*
X444929Y533288D01*
X446712Y526635D01*
X449347Y520272D01*
X452791Y514308D01*
X456984Y508844D01*
X461854Y503974D01*
X467318Y499781D01*
X473282Y496337D01*
X479645Y493702D01*
X486298Y491919D01*
X493126Y491020D01*
X500014D01*
X506842Y491919D01*
X513495Y493702D01*
X519858Y496337D01*
X525822Y499781D01*
X531286Y503974D01*
X536156Y508844D01*
X540349Y514308D01*
X543793Y520272D01*
X546428Y526635D01*
X548211Y533288D01*
X549110Y540116D01*
Y547004D01*
X548211Y553832D01*
X546428Y560485D01*
X543793Y566848D01*
X540349Y572812D01*
X536156Y578276D01*
X531286Y583146D01*
X525822Y587339D01*
X519858Y590783D01*
X513495Y593419D01*
X506842Y595201D01*
X500014Y596100D01*
D02*
G37*
G36*
X210905Y442090D02*
X208195D01*
X205578Y441389D01*
X203232Y440034D01*
X201316Y438118D01*
X199961Y435772D01*
X199260Y433155D01*
Y430445D01*
X199961Y427828D01*
X201316Y425482D01*
X203232Y423566D01*
X205578Y422211D01*
X208195Y421510D01*
X210905D01*
X213522Y422211D01*
X215868Y423566D01*
X217784Y425482D01*
X219139Y427828D01*
X219840Y430445D01*
Y433155D01*
X219139Y435772D01*
X217784Y438118D01*
X215868Y440034D01*
X213522Y441389D01*
X210905Y442090D01*
D02*
G37*
G36*
X284380Y363220D02*
X282040D01*
X279779Y362614D01*
X277751Y361444D01*
X276096Y359789D01*
X274926Y357761D01*
X274320Y355500D01*
Y353160D01*
X274926Y350899D01*
X276096Y348871D01*
X277751Y347216D01*
X279779Y346046D01*
X282040Y345440D01*
X284380D01*
X286641Y346046D01*
X288669Y347216D01*
X290324Y348871D01*
X291494Y350899D01*
X292100Y353160D01*
Y355500D01*
X291494Y357761D01*
X290324Y359789D01*
X288669Y361444D01*
X286641Y362614D01*
X284380Y363220D01*
D02*
G37*
G36*
X447441Y330962D02*
X445623D01*
X443963Y330275D01*
X308332D01*
X306845Y329979D01*
X305585Y329137D01*
X295496Y319048D01*
X295204D01*
X293430Y318314D01*
X292073Y316956D01*
X291338Y315182D01*
Y313262D01*
X292073Y311489D01*
X293430Y310131D01*
X295204Y309396D01*
X297124D01*
X298898Y310131D01*
X300255Y311489D01*
X300990Y313262D01*
Y313554D01*
X309941Y322505D01*
X443963D01*
X445623Y321818D01*
X447441D01*
X449122Y322514D01*
X450408Y323800D01*
X451104Y325481D01*
Y327299D01*
X450408Y328980D01*
X449122Y330266D01*
X447441Y330962D01*
D02*
G37*
G36*
X860178Y320500D02*
X856942D01*
X853816Y319662D01*
X851014Y318044D01*
X848726Y315756D01*
X847108Y312954D01*
X846270Y309828D01*
Y306592D01*
X847108Y303466D01*
X848726Y300664D01*
X851014Y298376D01*
X853816Y296758D01*
X856942Y295920D01*
X860178D01*
X863304Y296758D01*
X866106Y298376D01*
X868394Y300664D01*
X870013Y303466D01*
X870850Y306592D01*
Y309828D01*
X870013Y312954D01*
X868394Y315756D01*
X866106Y318044D01*
X863304Y319662D01*
X860178Y320500D01*
D02*
G37*
G36*
X75955Y305324D02*
X66205D01*
X64269Y305069D01*
X62466Y304322D01*
X60917Y303134D01*
X59728Y301584D01*
X58981Y299781D01*
X58726Y297845D01*
Y288095D01*
X58981Y286159D01*
X59728Y284356D01*
X60917Y282807D01*
X62466Y281618D01*
X64269Y280871D01*
X66205Y280616D01*
X75955D01*
X77891Y280871D01*
X79694Y281618D01*
X81243Y282807D01*
X82432Y284356D01*
X83179Y286159D01*
X83434Y288095D01*
Y297845D01*
X83179Y299781D01*
X82432Y301584D01*
X81243Y303134D01*
X79694Y304322D01*
X77891Y305069D01*
X75955Y305324D01*
D02*
G37*
G36*
X701294Y283972D02*
X677926D01*
Y260604D01*
X701294D01*
Y283972D01*
D02*
G37*
G36*
X548908D02*
X545832D01*
X542860Y283176D01*
X540196Y281637D01*
X538021Y279462D01*
X536482Y276798D01*
X535686Y273826D01*
Y270750D01*
X536482Y267778D01*
X538021Y265114D01*
X540196Y262938D01*
X542860Y261400D01*
X545832Y260604D01*
X548908D01*
X551880Y261400D01*
X554544Y262938D01*
X556720Y265114D01*
X558258Y267778D01*
X559054Y270750D01*
Y273826D01*
X558258Y276798D01*
X556720Y279462D01*
X554544Y281637D01*
X551880Y283176D01*
X548908Y283972D01*
D02*
G37*
G36*
X469590Y274066D02*
X467670D01*
X465896Y273331D01*
X464539Y271974D01*
X463856Y270326D01*
X458334Y264804D01*
X457436Y263460D01*
X457120Y261874D01*
Y236002D01*
X434812Y213694D01*
X424084D01*
X422499Y213378D01*
X421154Y212480D01*
X420764Y212090D01*
X420426D01*
X418652Y211355D01*
X417295Y209998D01*
X416560Y208224D01*
Y206304D01*
X417295Y204530D01*
X418652Y203173D01*
X420426Y202438D01*
X422346D01*
X424120Y203173D01*
X425477Y204530D01*
X425840Y205406D01*
X436528D01*
X438114Y205722D01*
X439458Y206620D01*
X464194Y231356D01*
X465092Y232700D01*
X465408Y234286D01*
Y260158D01*
X469716Y264466D01*
X471364Y265149D01*
X472721Y266506D01*
X473456Y268280D01*
Y270200D01*
X472721Y271974D01*
X471364Y273331D01*
X469590Y274066D01*
D02*
G37*
G36*
X479960Y214630D02*
X477620D01*
X475359Y214024D01*
X473331Y212854D01*
X471676Y211199D01*
X470506Y209171D01*
X469900Y206910D01*
Y204570D01*
X470506Y202309D01*
X471676Y200281D01*
X473331Y198626D01*
X475359Y197456D01*
X477620Y196850D01*
X479960D01*
X482221Y197456D01*
X484249Y198626D01*
X485904Y200281D01*
X487074Y202309D01*
X487680Y204570D01*
Y206910D01*
X487074Y209171D01*
X485904Y211199D01*
X484249Y212854D01*
X482221Y214024D01*
X479960Y214630D01*
D02*
G37*
G36*
X416460Y137160D02*
X414120D01*
X411859Y136554D01*
X409831Y135384D01*
X408176Y133729D01*
X407006Y131701D01*
X406400Y129440D01*
Y127100D01*
X407006Y124839D01*
X408176Y122811D01*
X409831Y121156D01*
X411859Y119986D01*
X414120Y119380D01*
X416460D01*
X418721Y119986D01*
X420749Y121156D01*
X422404Y122811D01*
X423574Y124839D01*
X424180Y127100D01*
Y129440D01*
X423574Y131701D01*
X422404Y133729D01*
X420749Y135384D01*
X418721Y136554D01*
X416460Y137160D01*
D02*
G37*
G36*
X788685Y139830D02*
X785975D01*
X783358Y139129D01*
X781012Y137774D01*
X779096Y135858D01*
X777741Y133512D01*
X777040Y130895D01*
Y128185D01*
X777741Y125568D01*
X779096Y123222D01*
X781012Y121306D01*
X783358Y119951D01*
X785975Y119250D01*
X788685D01*
X791302Y119951D01*
X793648Y121306D01*
X795564Y123222D01*
X796919Y125568D01*
X797620Y128185D01*
Y130895D01*
X796919Y133512D01*
X795564Y135858D01*
X793648Y137774D01*
X791302Y139129D01*
X788685Y139830D01*
D02*
G37*
%LPD*%
D14*
X296164Y314222D02*
X308332Y326390D01*
X446532D01*
D31*
X134550Y431800D02*
D03*
X862330Y129540D02*
D03*
X599440Y501650D02*
D03*
D32*
X209550Y431800D02*
D03*
X787330Y129540D02*
D03*
X624840Y501650D02*
D03*
X650240D02*
D03*
D34*
X689610Y272288D02*
D03*
D35*
X547370D02*
D03*
D40*
X436528Y209550D02*
X461264Y234286D01*
Y261874D02*
X468630Y269240D01*
X461264Y234286D02*
Y261874D01*
X421386Y207264D02*
X421798D01*
X424084Y209550D02*
X436528D01*
X421798Y207264D02*
X424084Y209550D01*
D46*
X71080Y242970D02*
D03*
X858560Y308210D02*
D03*
D47*
X71080Y292970D02*
D03*
X858560Y258210D02*
D03*
D48*
X496570Y543560D02*
D03*
X730250Y537210D02*
D03*
D49*
X416560Y541020D02*
D03*
X353060Y539750D02*
D03*
D50*
X415290Y128270D02*
D03*
X478790Y205740D02*
D03*
X283210Y354330D02*
D03*
D51*
X452374Y256794D02*
D03*
X422910Y278130D02*
D03*
X330708Y144145D02*
D03*
X367538Y139446D02*
D03*
X381508D02*
D03*
D52*
X468630Y269240D02*
D03*
X421386Y207264D02*
D03*
X296164Y314222D02*
D03*
X467360Y337820D02*
D03*
D53*
X446532Y326390D02*
D03*
M02*
